<svg version="1.1" xmlns="http://www.w3.org/2000/svg" xmlns:xlink="http://www.w3.org/1999/xlink" width="50px" height="50px" viewBox="0,0,256,256"><g fill="#ffffff" fill-rule="nonzero" stroke="none" stroke-width="1" stroke-linecap="butt" stroke-linejoin="miter" stroke-miterlimit="10" stroke-dasharray="" stroke-dashoffset="0" font-family="none" font-weight="none" font-size="none" text-anchor="none" style="mix-blend-mode: normal"><g transform="scale(5.12,5.12)"><path d="M19.09375,5c-1.08203,0 -1.98828,0.625 -2.53125,1.4375c0,0.01172 0,0.01953 0,0.03125l-1.59375,2.53125h-8.96875c-2.74609,0 -5,2.25391 -5,5v24c0,2.74609 2.25391,5 5,5h38c2.74609,0 5,-2.25391 5,-5v-24c0,-2.74609 -2.25391,-5 -5,-5h-9.0625l-1.59375,-2.53125c0,-0.01172 0,-0.01953 0,-0.03125c-0.54297,-0.8125 -1.44922,-1.4375 -2.53125,-1.4375zM19.09375,7h11.71875c0.32031,0 0.58594,0.17578 0.84375,0.5625l1.90625,2.96875c0.18359,0.28906 0.5,0.46875 0.84375,0.46875h9.59375c1.65625,0 3,1.34375 3,3v24c0,1.65625 -1.34375,3 -3,3h-38c-1.65625,0 -3,-1.34375 -3,-3v-24c0,-1.65625 1.34375,-3 3,-3h9.5c0.34375,0 0.66016,-0.17969 0.84375,-0.46875l1.875,-2.96875l0.03125,-0.03125c0.25,-0.35156 0.53906,-0.53125 0.84375,-0.53125zM10,13c-1.64453,0 -3,1.35547 -3,3c0,1.64453 1.35547,3 3,3c1.64453,0 3,-1.35547 3,-3c0,-1.64453 -1.35547,-3 -3,-3zM10,15c0.55469,0 1,0.44531 1,1c0,0.55469 -0.44531,1 -1,1c-0.55469,0 -1,-0.44531 -1,-1c0,-0.55469 0.44531,-1 1,-1zM25,15c-6.0625,0 -11,4.9375 -11,11c0,6.0625 4.9375,11 11,11c6.0625,0 11,-4.9375 11,-11c0,-6.0625 -4.9375,-11 -11,-11zM25,17c4.98047,0 9,4.01953 9,9c0,4.98047 -4.01953,9 -9,9c-4.98047,0 -9,-4.01953 -9,-9c0,-4.98047 4.01953,-9 9,-9z"></path></g></g></svg>